<?xml version="1.0" standalone="no"?>
<!DOCTYPE svg PUBLIC "-//W3C//DTD SVG 20010904//EN"
 "http://www.w3.org/TR/2001/REC-SVG-20010904/DTD/svg10.dtd">
<svg version="1.0" xmlns="http://www.w3.org/2000/svg"
 width="350.000000pt" height="350.000000pt" viewBox="0 0 350.000000 350.000000"
 preserveAspectRatio="xMidYMid meet">
<metadata>
Created by potrace 1.14, written by Peter Selinger 2001-2017
</metadata>
<g transform="translate(0.000000,350.000000) scale(0.100000,-0.100000)"
fill="#000000" stroke="none">
<path d="M34 3466 l-34 -34 0 -1676 c0 -1824 -3 -1718 55 -1744 36 -16 3352
-17 3388 -1 13 6 31 23 40 39 16 26 17 158 17 1699 0 1273 -3 1676 -12 1696
-26 58 80 55 -1744 55 l-1676 0 -34 -34z m2518 -228 c73 -34 142 -103 176
-176 24 -50 27 -70 27 -157 0 -87 -3 -107 -27 -157 -34 -73 -103 -142 -176
-176 l-57 -27 -825 0 -825 0 -57 28 c-112 55 -191 173 -205 307 -12 117 57
258 161 328 95 63 61 61 946 59 l805 -2 57 -27z m-562 -981 c102 -52 169 -138
197 -251 14 -57 14 -77 4 -133 -23 -127 -100 -230 -209 -281 l-57 -27 -590 0
-590 0 -59 29 c-77 38 -140 101 -176 178 -96 202 1 426 218 504 29 11 158 13
622 11 l585 -2 55 -28z m-1135 -886 c77 -36 139 -97 176 -174 40 -84 45 -155
20 -260 -26 -109 -50 -157 -109 -216 -145 -145 -386 -142 -523 7 -109 118
-126 286 -48 470 38 88 146 176 246 202 66 16 168 4 238 -29z"/>
</g>
</svg>
